<!DOCTYPE svg PUBLIC "-//W3C//DTD SVG 1.1//EN" "http://www.w3.org/Graphics/SVG/1.1/DTD/svg11.dtd">
<!-- Uploaded to: SVG Repo, www.svgrepo.com, Transformed by: SVG Repo Mixer Tools -->
<svg height="204px" width="204px" version="1.1" id="Layer_1" xmlns="http://www.w3.org/2000/svg" xmlns:xlink="http://www.w3.org/1999/xlink" viewBox="-123.75 -123.75 742.50 742.50" xml:space="preserve" fill="" stroke="" stroke-width="0.00495">
<g id="SVGRepo_bgCarrier" stroke-width="0"/>
<g id="SVGRepo_tracerCarrier" stroke-linecap="round" stroke-linejoin="round" stroke="#850000" stroke-width="24.75"> <g> <path style="fill:#d32f2f;" d="M89.803,366.872V257.069c-30.272,0-54.901,24.629-54.901,54.902S59.53,366.872,89.803,366.872z"/> <path style="fill:#d32f2f;" d="M89.803,385.041C40.285,385.041,0,425.327,0,474.844v20h179.605v-20 C179.605,425.327,139.32,385.041,89.803,385.041z"/> <path style="fill:#d32f2f;" d="M405.197,366.872V257.069c-30.272,0-54.901,24.629-54.901,54.902S374.925,366.872,405.197,366.872z"/> <path style="fill:#d32f2f;" d="M405.197,385.041c-49.518,0-89.803,40.286-89.803,89.803v20H495v-20 C495,425.327,454.715,385.041,405.197,385.041z"/> <path style="fill:#d32f2f;" d="M247.5,109.959V0.156c-30.272,0-54.901,24.629-54.901,54.902S217.228,109.959,247.5,109.959z"/> <path style="fill:#B71C1C;" d="M144.704,311.971c0-30.273-24.629-54.902-54.901-54.902v109.803 C120.075,366.872,144.704,342.243,144.704,311.971z"/> <path style="fill:#B71C1C;" d="M460.099,311.971c0-30.273-24.629-54.902-54.901-54.902v109.803 C435.47,366.872,460.099,342.243,460.099,311.971z"/> <path style="fill:#B71C1C;" d="M302.401,55.057c0-30.273-24.629-54.902-54.901-54.902v109.803 C277.772,109.959,302.401,85.33,302.401,55.057z"/> <path style="fill:#d32f2f;" d="M337.303,217.931c0-49.518-40.285-89.803-89.803-89.803s-89.803,40.286-89.803,89.803v20h179.605 V217.931z"/> <polygon style="fill:#f9a89a;" points="267.5,333.052 267.5,267.816 227.5,267.816 227.5,333.052 171.004,365.67 191.004,400.311 247.5,367.693 303.996,400.311 323.996,365.67 "/> </g> </g>
<g id="SVGRepo_iconCarrier"> <g> <path style="fill:#d32f2f;" d="M89.803,366.872V257.069c-30.272,0-54.901,24.629-54.901,54.902S59.53,366.872,89.803,366.872z"/> <path style="fill:#d32f2f;" d="M89.803,385.041C40.285,385.041,0,425.327,0,474.844v20h179.605v-20 C179.605,425.327,139.32,385.041,89.803,385.041z"/> <path style="fill:#d32f2f;" d="M405.197,366.872V257.069c-30.272,0-54.901,24.629-54.901,54.902S374.925,366.872,405.197,366.872z"/> <path style="fill:#d32f2f;" d="M405.197,385.041c-49.518,0-89.803,40.286-89.803,89.803v20H495v-20 C495,425.327,454.715,385.041,405.197,385.041z"/> <path style="fill:#d32f2f;" d="M247.5,109.959V0.156c-30.272,0-54.901,24.629-54.901,54.902S217.228,109.959,247.5,109.959z"/> <path style="fill:#B71C1C;" d="M144.704,311.971c0-30.273-24.629-54.902-54.901-54.902v109.803 C120.075,366.872,144.704,342.243,144.704,311.971z"/> <path style="fill:#B71C1C;" d="M460.099,311.971c0-30.273-24.629-54.902-54.901-54.902v109.803 C435.47,366.872,460.099,342.243,460.099,311.971z"/> <path style="fill:#B71C1C;" d="M302.401,55.057c0-30.273-24.629-54.902-54.901-54.902v109.803 C277.772,109.959,302.401,85.33,302.401,55.057z"/> <path style="fill:#d32f2f;" d="M337.303,217.931c0-49.518-40.285-89.803-89.803-89.803s-89.803,40.286-89.803,89.803v20h179.605 V217.931z"/> <polygon style="fill:#f9a89a;" points="267.5,333.052 267.5,267.816 227.5,267.816 227.5,333.052 171.004,365.67 191.004,400.311 247.5,367.693 303.996,400.311 323.996,365.67 "/> </g> </g>
</svg>