<svg width="512" height="512" version="1.1" xmlns="http://www.w3.org/2000/svg" desc="Created with imagetracer.js version 1.2.6" ><path fill="rgb(0,0,0)" stroke="rgb(0,0,0)" stroke-width="1" opacity="0" d="M 0 0 L 250 0.5 Q 230.6 4.6 220 17.5 L 210 33.5 L 206 49.5 L 206 283.5 L 208 294.5 L 214 307.5 L 224.5 320 Q 234.6 329.4 250.5 333 L 259.5 333 L 260.5 334 L 301 334 L 301 380.5 L 303 387.5 L 311 401 L 323.5 409 L 329.5 411 L 344 412 L 344 448.5 L 343 453.5 Q 339.9 465.9 331.5 473 Q 323.3 480.8 309.5 483 L 143.5 483 L 126.5 477 L 119 470.5 Q 112.9 464.1 110 454.5 L 109 449.5 L 109 430.5 L 108 427.5 L 101.5 420 L 94.5 418 L 85.5 421 L 82 424.5 Q 77.1 432.1 79 446.5 L 80 447.5 L 80 456.5 L 84 470.5 Q 91.1 486.4 103.5 497 Q 115.7 508.3 136 511.5 L 0 512 L 0 0 Z M 52 152 Q 33 155 22 166 Q 8 178 4 200 L 4 223 L 8 238 Q 15 255 28 268 Q 50 289 77 306 L 79 309 L 79 367 L 81 374 Q 84 379 92 381 Q 100 382 104 378 L 109 370 L 109 309 L 138 288 L 152 276 Q 164 265 174 251 L 182 233 L 184 224 L 184 216 L 185 215 L 185 205 L 183 194 Q 180 180 172 172 Q 160 156 137 152 L 119 152 L 114 153 L 101 158 L 96 162 L 75 153 L 70 152 L 52 152 Z " /><path fill="rgb(0,0,0)" stroke="rgb(0,0,0)" stroke-width="1" opacity="0" d="M 464.5 0 L 511.5 0 L 512 0.5 L 512 512 L 317 511.5 L 325.5 510 L 337.5 505 Q 349.4 498.4 358 488.5 Q 367.8 477.3 372 460.5 L 373 446.5 L 374 445.5 L 374 412 L 385.5 411 L 391.5 409 Q 400.9 404.4 407 396.5 L 413 383.5 Q 411.7 378.8 414 377.5 L 414 358.5 Q 412.5 352 407.5 349 Q 403.5 346 395.5 347 L 387 352.5 L 384 359.5 L 384 376.5 L 380.5 381 L 378.5 382 L 335.5 382 L 331 377.5 L 330 373.5 L 330 334 L 454.5 334 L 455.5 333 L 464.5 333 L 480.5 327 L 493 318 L 502 305.5 L 508 288.5 L 508 44.5 L 502 27.5 L 493 15 L 480.5 6 L 471.5 2 L 464.5 1 L 464.5 0 Z " /><path fill="rgb(0,0,0)" stroke="rgb(0,0,0)" stroke-width="1" opacity="0" d="M 257.5 29 L 457.5 29 Q 469.4 31.6 475 40.5 L 479 51.5 L 479 281.5 Q 476.8 294.3 467.5 300 L 457.5 304 L 256.5 304 Q 247.1 301.9 242 295.5 L 236 283.5 L 236 271 L 413.5 271 Q 429.1 268.6 437 258.5 L 443 249.5 L 446 237.5 L 446 101.5 L 439.5 92 L 434.5 90 L 236 90 L 236 49.5 Q 238.1 40.1 244.5 35 L 257.5 29 Z " /><path fill="rgb(0,0,0)" stroke="rgb(0,0,0)" stroke-width="1" opacity="0" d="M 236 119 L 269 119 L 269 166 L 236 166 L 236 119 Z " /><path fill="rgb(0,0,0)" stroke="rgb(0,0,0)" stroke-width="1" opacity="0" d="M 236 195 L 269 195 L 269 241 L 236 241 L 236 195 Z " /><path fill="rgb(243,177,175)" stroke="rgb(243,177,175)" stroke-width="1" opacity="1" d="M 298 119 L 416 119 L 416 237.5 L 412.5 241 L 408.5 242 L 306.5 242 L 302.5 241 L 299 237.5 L 298 234.5 L 298 119 Z " /><path fill="rgb(243,177,175)" stroke="rgb(243,177,175)" stroke-width="1" opacity="1" d="M 57.5 181 Q 71.6 180.4 78 187.5 L 85.5 197 Q 89.5 200.5 98.5 199 L 106 195 Q 108.1 188.1 114.5 184 L 124.5 181 L 131.5 181 Q 144 183 150 191.5 L 155 202.5 L 155 218.5 Q 152.6 232.1 145 240.5 L 128.5 257 L 105.5 275 L 95.5 282 L 93.5 282 Q 66.9 265.6 46 243.5 Q 38.7 236.3 35 225.5 L 33 217.5 L 33 205.5 L 38 191.5 L 42.5 187 L 49.5 183 L 57.5 181 Z " /><path fill="rgb(227,148,149)" stroke="rgb(227,148,149)" stroke-width="1" opacity="1" d="M 416.5 119 L 417 235.5 L 416 235.5 L 416.5 119 Z " /><path fill="rgb(227,148,149)" stroke="rgb(227,148,149)" stroke-width="1" opacity="1" d="M 54.5 181 L 57 181.5 L 54.5 182 L 54.5 181 Z " /><path fill="rgb(227,148,149)" stroke="rgb(227,148,149)" stroke-width="1" opacity="1" d="M 64.5 181 L 68 181.5 L 64.5 182 L 64.5 181 Z " /><path fill="rgb(227,148,149)" stroke="rgb(227,148,149)" stroke-width="1" opacity="1" d="M 120.5 181 L 124 181.5 L 120.5 182 L 120.5 181 Z " /><path fill="rgb(227,148,149)" stroke="rgb(227,148,149)" stroke-width="1" opacity="1" d="M 74.5 184 L 75.5 186 L 74.5 184 Z " /><path fill="rgb(227,148,149)" stroke="rgb(227,148,149)" stroke-width="1" opacity="1" d="M 44.5 185 L 43.5 187 L 44.5 185 Z " /><path fill="rgb(227,148,149)" stroke="rgb(227,148,149)" stroke-width="1" opacity="1" d="M 112.5 185 L 109.5 189 L 112.5 185 Z " /><path fill="rgb(227,148,149)" stroke="rgb(227,148,149)" stroke-width="1" opacity="1" d="M 146.5 187 L 149.5 191 L 146.5 187 Z " /><path fill="rgb(227,148,149)" stroke="rgb(227,148,149)" stroke-width="1" opacity="1" d="M 78.5 188 L 79.5 190 L 78.5 188 Z " /><path fill="rgb(227,148,149)" stroke="rgb(227,148,149)" stroke-width="1" opacity="1" d="M 80.5 191 L 81.5 193 L 80.5 191 Z " /><path fill="rgb(227,148,149)" stroke="rgb(227,148,149)" stroke-width="1" opacity="1" d="M 107.5 191 L 106.5 193 L 107.5 191 Z " /><path fill="rgb(227,148,149)" stroke="rgb(227,148,149)" stroke-width="1" opacity="1" d="M 150.5 192 L 151.5 194 L 150.5 192 Z " /><path fill="rgb(227,148,149)" stroke="rgb(227,148,149)" stroke-width="1" opacity="1" d="M 84.5 195 L 85.5 197 L 84.5 195 Z " /><path fill="rgb(227,148,149)" stroke="rgb(227,148,149)" stroke-width="1" opacity="1" d="M 102.5 196 L 101.5 198 L 100 197.5 L 102.5 196 Z " /><path fill="rgb(227,148,149)" stroke="rgb(227,148,149)" stroke-width="1" opacity="1" d="M 33.5 202 L 34 204.5 L 33 204.5 L 33.5 202 Z " /><path fill="rgb(227,148,149)" stroke="rgb(227,148,149)" stroke-width="1" opacity="1" d="M 155.5 207 L 156 215.5 L 155 215.5 L 155.5 207 Z " /><path fill="rgb(227,148,149)" stroke="rgb(227,148,149)" stroke-width="1" opacity="1" d="M 154.5 219 L 155 221.5 L 154 221.5 L 154.5 219 Z " /><path fill="rgb(227,148,149)" stroke="rgb(227,148,149)" stroke-width="1" opacity="1" d="M 38.5 233 L 39.5 235 L 38.5 233 Z " /><path fill="rgb(227,148,149)" stroke="rgb(227,148,149)" stroke-width="1" opacity="1" d="M 148.5 235 L 147.5 237 L 148.5 235 Z " /><path fill="rgb(227,148,149)" stroke="rgb(227,148,149)" stroke-width="1" opacity="1" d="M 40.5 236 L 41.5 238 L 40.5 236 Z " /><path fill="rgb(227,148,149)" stroke="rgb(227,148,149)" stroke-width="1" opacity="1" d="M 146.5 238 L 145.5 240 L 146.5 238 Z " /><path fill="rgb(227,148,149)" stroke="rgb(227,148,149)" stroke-width="1" opacity="1" d="M 299.5 238 L 301.5 241 L 299.5 238 Z " /><path fill="rgb(227,148,149)" stroke="rgb(227,148,149)" stroke-width="1" opacity="1" d="M 42.5 239 L 45.5 243 L 42.5 239 Z " /><path fill="rgb(227,148,149)" stroke="rgb(227,148,149)" stroke-width="1" opacity="1" d="M 414.5 239 L 413.5 241 L 414.5 239 Z " /><path fill="rgb(227,148,149)" stroke="rgb(227,148,149)" stroke-width="1" opacity="1" d="M 303.5 241 L 306 241.5 L 303.5 242 L 303.5 241 Z " /><path fill="rgb(227,148,149)" stroke="rgb(227,148,149)" stroke-width="1" opacity="1" d="M 409.5 241 L 412 241.5 L 409.5 242 L 409.5 241 Z " /><path fill="rgb(227,148,149)" stroke="rgb(227,148,149)" stroke-width="1" opacity="1" d="M 142.5 243 L 131.5 255 L 142.5 243 Z " /><path fill="rgb(227,148,149)" stroke="rgb(227,148,149)" stroke-width="1" opacity="1" d="M 49.5 247 L 50.5 249 L 49.5 247 Z " /><path fill="rgb(227,148,149)" stroke="rgb(227,148,149)" stroke-width="1" opacity="1" d="M 58.5 255 L 61.5 259 L 58.5 255 Z " /><path fill="rgb(227,148,149)" stroke="rgb(227,148,149)" stroke-width="1" opacity="1" d="M 127.5 257 L 124.5 261 L 127.5 257 Z " /><path fill="rgb(227,148,149)" stroke="rgb(227,148,149)" stroke-width="1" opacity="1" d="M 65.5 261 L 66.5 263 L 65.5 261 Z " /><path fill="rgb(227,148,149)" stroke="rgb(227,148,149)" stroke-width="1" opacity="1" d="M 121.5 262 L 120.5 264 L 121.5 262 Z " /><path fill="rgb(227,148,149)" stroke="rgb(227,148,149)" stroke-width="1" opacity="1" d="M 69.5 264 L 71.5 267 L 69.5 264 Z " /><path fill="rgb(227,148,149)" stroke="rgb(227,148,149)" stroke-width="1" opacity="1" d="M 117.5 265 L 115.5 268 L 117.5 265 Z " /><path fill="rgb(227,148,149)" stroke="rgb(227,148,149)" stroke-width="1" opacity="1" d="M 74.5 268 L 75.5 270 L 74.5 268 Z " /><path fill="rgb(227,148,149)" stroke="rgb(227,148,149)" stroke-width="1" opacity="1" d="M 112.5 269 L 110.5 272 L 112.5 269 Z " /><path fill="rgb(227,148,149)" stroke="rgb(227,148,149)" stroke-width="1" opacity="1" d="M 78.5 271 L 80.5 274 L 78.5 271 Z " /><path fill="rgb(227,148,149)" stroke="rgb(227,148,149)" stroke-width="1" opacity="1" d="M 108.5 272 L 107.5 274 L 108.5 272 Z " /><path fill="rgb(227,148,149)" stroke="rgb(227,148,149)" stroke-width="1" opacity="1" d="M 82.5 274 L 83.5 276 L 82.5 274 Z " /><path fill="rgb(227,148,149)" stroke="rgb(227,148,149)" stroke-width="1" opacity="1" d="M 104.5 275 L 103.5 277 L 104.5 275 Z " /><path fill="rgb(227,148,149)" stroke="rgb(227,148,149)" stroke-width="1" opacity="1" d="M 85.5 276 L 86.5 278 L 85.5 276 Z " /><path fill="rgb(227,148,149)" stroke="rgb(227,148,149)" stroke-width="1" opacity="1" d="M 101.5 277 L 100.5 279 L 101.5 277 Z " /><path fill="rgb(227,148,149)" stroke="rgb(227,148,149)" stroke-width="1" opacity="1" d="M 89.5 279 L 90.5 281 L 89.5 279 Z " /><path fill="rgb(227,148,149)" stroke="rgb(227,148,149)" stroke-width="1" opacity="1" d="M 98.5 279 L 97.5 281 L 98.5 279 Z " /><path fill="rgb(227,148,149)" stroke="rgb(227,148,149)" stroke-width="1" opacity="1" d="M 92.5 281 L 95 282.5 L 93.5 283 L 92.5 281 Z " /><path fill="rgb(178,64,74)" stroke="rgb(178,64,74)" stroke-width="1" opacity="0.5019607843137255" d="M 250.5 0 L 256 0.5 L 250.5 1 L 250.5 0 Z " /><path fill="rgb(178,64,74)" stroke="rgb(178,64,74)" stroke-width="1" opacity="0.5019607843137255" d="M 459.5 0 L 464 0.5 L 459.5 1 L 459.5 0 Z " /><path fill="rgb(178,64,74)" stroke="rgb(178,64,74)" stroke-width="1" opacity="0.5019607843137255" d="M 246.5 1 L 249 1.5 Q 232 5.5 222 16.5 L 213.5 28 L 214 26.5 L 223.5 14 Q 232.5 5 246.5 1 Z " /><path fill="rgb(178,64,74)" stroke="rgb(178,64,74)" stroke-width="1" opacity="0.5019607843137255" d="M 465.5 1 L 468 1.5 L 465.5 2 L 465.5 1 Z " /><path fill="rgb(178,64,74)" stroke="rgb(178,64,74)" stroke-width="1" opacity="0.5019607843137255" d="M 469.5 2 L 474 3.5 L 472.5 4 L 469.5 3 L 469.5 2 Z " /><path fill="rgb(178,64,74)" stroke="rgb(178,64,74)" stroke-width="1" opacity="0.5019607843137255" d="M 475.5 4 L 480.5 6 L 493 15 L 502 27.5 L 504 32.5 L 503 32.5 Q 497.6 19.9 487.5 12 L 475.5 5 L 475.5 4 Z " /><path fill="rgb(178,64,74)" stroke="rgb(178,64,74)" stroke-width="1" opacity="0.5019607843137255" d="M 259.5 28 L 455 28.5 L 259.5 29 L 259.5 28 Z " /><path fill="rgb(178,64,74)" stroke="rgb(178,64,74)" stroke-width="1" opacity="0.5019607843137255" d="M 212.5 29 L 213 30.5 L 210.5 35 L 210 33.5 L 212.5 29 Z " /><path fill="rgb(178,64,74)" stroke="rgb(178,64,74)" stroke-width="1" opacity="0.5019607843137255" d="M 254.5 29 L 257 29.5 L 254.5 30 L 254.5 29 Z " /><path fill="rgb(178,64,74)" stroke="rgb(178,64,74)" stroke-width="1" opacity="0.5019607843137255" d="M 458.5 29 L 461 29.5 L 458.5 30 L 458.5 29 Z " /><path fill="rgb(178,64,74)" stroke="rgb(178,64,74)" stroke-width="1" opacity="0.5019607843137255" d="M 251.5 30 L 253 30.5 L 242 37.5 L 239.5 41 L 241 38.5 L 244.5 34 L 251.5 30 Z " /><path fill="rgb(178,64,74)" stroke="rgb(178,64,74)" stroke-width="1" opacity="0.5019607843137255" d="M 462.5 30 Q 471.8 32.7 476 40.5 L 479 50.5 L 478 50.5 Q 476.5 38 467.5 33 L 462.5 31 L 462.5 30 Z " /><path fill="rgb(178,64,74)" stroke="rgb(178,64,74)" stroke-width="1" opacity="0.5019607843137255" d="M 504.5 34 L 506 38.5 L 505 38.5 L 504.5 34 Z " /><path fill="rgb(178,64,74)" stroke="rgb(178,64,74)" stroke-width="1" opacity="0.5019607843137255" d="M 208.5 39 L 209 41.5 L 207.5 47 L 207 42.5 L 208.5 39 Z " /><path fill="rgb(178,64,74)" stroke="rgb(178,64,74)" stroke-width="1" opacity="0.5019607843137255" d="M 506.5 40 L 507 42.5 L 506 42.5 L 506.5 40 Z " /><path fill="rgb(178,64,74)" stroke="rgb(178,64,74)" stroke-width="1" opacity="0.5019607843137255" d="M 238.5 42 L 238 43.5 L 236.5 49 L 236 46.5 L 238.5 42 Z " /><path fill="rgb(178,64,74)" stroke="rgb(178,64,74)" stroke-width="1" opacity="0.5019607843137255" d="M 507.5 44 L 508 49.5 L 507 49.5 L 507.5 44 Z " /><path fill="rgb(178,64,74)" stroke="rgb(178,64,74)" stroke-width="1" opacity="0.5019607843137255" d="M 206.5 49 L 207 283.5 L 206 283.5 L 206.5 49 Z " /><path fill="rgb(178,64,74)" stroke="rgb(178,64,74)" stroke-width="1" opacity="0.5019607843137255" d="M 235.5 50 L 236 90 L 281 90.5 L 235 91 L 235.5 50 Z " /><path fill="rgb(178,64,74)" stroke="rgb(178,64,74)" stroke-width="1" opacity="0.5019607843137255" d="M 479.5 53 L 480 279.5 L 479 279.5 L 479.5 53 Z " /><path fill="rgb(178,64,74)" stroke="rgb(178,64,74)" stroke-width="1" opacity="0.5019607843137255" d="M 296.5 90 L 435 90.5 L 296.5 91 L 296.5 90 Z " /><path fill="rgb(178,64,74)" stroke="rgb(178,64,74)" stroke-width="1" opacity="0.5019607843137255" d="M 436.5 91 L 443 95.5 L 446 101.5 L 446 237.5 L 445 237.5 L 445 101.5 L 439.5 93 Q 435.7 92.7 436.5 91 Z " /><path fill="rgb(178,64,74)" stroke="rgb(178,64,74)" stroke-width="1" opacity="0.5019607843137255" d="M 235.5 119 L 236 165.5 L 235 165.5 L 235.5 119 Z " /><path fill="rgb(178,64,74)" stroke="rgb(178,64,74)" stroke-width="1" opacity="0.5019607843137255" d="M 269.5 119 L 270 165.5 L 269 165.5 L 269.5 119 Z " /><path fill="rgb(178,64,74)" stroke="rgb(178,64,74)" stroke-width="1" opacity="0.5019607843137255" d="M 51.5 152 L 60 152.5 L 51.5 153 L 51.5 152 Z " /><path fill="rgb(178,64,74)" stroke="rgb(178,64,74)" stroke-width="1" opacity="0.5019607843137255" d="M 61.5 152 L 70 152.5 L 61.5 153 L 61.5 152 Z " /><path fill="rgb(178,64,74)" stroke="rgb(178,64,74)" stroke-width="1" opacity="0.5019607843137255" d="M 118.5 152 L 127 152.5 L 118.5 153 L 118.5 152 Z " /><path fill="rgb(178,64,74)" stroke="rgb(178,64,74)" stroke-width="1" opacity="0.5019607843137255" d="M 128.5 152 L 137 152.5 L 128.5 153 L 128.5 152 Z " /><path fill="rgb(178,64,74)" stroke="rgb(178,64,74)" stroke-width="1" opacity="0.5019607843137255" d="M 46.5 153 L 50 153.5 L 46.5 154 L 46.5 153 Z " /><path fill="rgb(178,64,74)" stroke="rgb(178,64,74)" stroke-width="1" opacity="0.5019607843137255" d="M 72.5 153 L 75 153.5 L 72.5 154 L 72.5 153 Z " /><path fill="rgb(178,64,74)" stroke="rgb(178,64,74)" stroke-width="1" opacity="0.5019607843137255" d="M 113.5 153 L 116 153.5 L 110.5 155 L 110.5 154 L 113.5 153 Z " /><path fill="rgb(178,64,74)" stroke="rgb(178,64,74)" stroke-width="1" opacity="0.5019607843137255" d="M 139.5 153 L 142 153.5 L 139.5 154 L 139.5 153 Z " /><path fill="rgb(178,64,74)" stroke="rgb(178,64,74)" stroke-width="1" opacity="0.5019607843137255" d="M 42.5 154 L 45 154.5 L 35.5 158 L 35.5 157 L 42.5 154 Z " /><path fill="rgb(178,64,74)" stroke="rgb(178,64,74)" stroke-width="1" opacity="0.5019607843137255" d="M 76.5 154 L 81.5 155 L 95.5 162 Q 100.3 156.8 108.5 155 L 108.5 156 L 93.5 163 L 81.5 156 L 76.5 155 L 76.5 154 Z " /><path fill="rgb(178,64,74)" stroke="rgb(178,64,74)" stroke-width="1" opacity="0.5019607843137255" d="M 143.5 154 L 146 154.5 L 143.5 155 L 143.5 154 Z " /><path fill="rgb(178,64,74)" stroke="rgb(178,64,74)" stroke-width="1" opacity="0.5019607843137255" d="M 147.5 155 L 151 156.5 L 149.5 157 L 147.5 155 Z " /><path fill="rgb(178,64,74)" stroke="rgb(178,64,74)" stroke-width="1" opacity="0.5019607843137255" d="M 152.5 157 Q 164.7 161.8 172 171.5 L 176 177.5 L 174 176.5 L 164.5 165 L 152.5 158 L 152.5 157 Z " /><path fill="rgb(178,64,74)" stroke="rgb(178,64,74)" stroke-width="1" opacity="0.5019607843137255" d="M 33.5 158 L 32.5 160 L 20 168 L 13 177.5 L 6.5 193 L 6 190.5 Q 11 175.5 21.5 166 L 33.5 158 Z " /><path fill="rgb(178,64,74)" stroke="rgb(178,64,74)" stroke-width="1" opacity="0.5019607843137255" d="M 176.5 179 L 180 185.5 L 179 185.5 L 176.5 179 Z " /><path fill="rgb(178,64,74)" stroke="rgb(178,64,74)" stroke-width="1" opacity="0.5019607843137255" d="M 182.5 193 L 183 195.5 L 182 195.5 L 182.5 193 Z " /><path fill="rgb(178,64,74)" stroke="rgb(178,64,74)" stroke-width="1" opacity="0.5019607843137255" d="M 5.5 194 L 6 196.5 L 5 196.5 L 5.5 194 Z " /><path fill="rgb(178,64,74)" stroke="rgb(178,64,74)" stroke-width="1" opacity="0.5019607843137255" d="M 236.5 194 L 268.5 194 L 270 195.5 L 270 242 L 235 242 L 235 195.5 L 236.5 194 Z M 236 195 L 236 241 L 269 241 L 269 195 L 236 195 Z " /><path fill="rgb(178,64,74)" stroke="rgb(178,64,74)" stroke-width="1" opacity="0.5019607843137255" d="M 183.5 197 L 184 201.5 L 183 201.5 L 183.5 197 Z " /><path fill="rgb(178,64,74)" stroke="rgb(178,64,74)" stroke-width="1" opacity="0.5019607843137255" d="M 4.5 199 L 5 204.5 L 4 204.5 L 4.5 199 Z " /><path fill="rgb(178,64,74)" stroke="rgb(178,64,74)" stroke-width="1" opacity="0.5019607843137255" d="M 184.5 204 L 185 214.5 L 184 214.5 L 184.5 204 Z " /><path fill="rgb(178,64,74)" stroke="rgb(178,64,74)" stroke-width="1" opacity="0.5019607843137255" d="M 4.5 214 L 5 222.5 L 4 222.5 L 4.5 214 Z " /><path fill="rgb(178,64,74)" stroke="rgb(178,64,74)" stroke-width="1" opacity="0.5019607843137255" d="M 183.5 219 L 184 223.5 L 183 223.5 L 183.5 219 Z " /><path fill="rgb(178,64,74)" stroke="rgb(178,64,74)" stroke-width="1" opacity="0.5019607843137255" d="M 5.5 224 L 6 227.5 L 5 227.5 L 5.5 224 Z " /><path fill="rgb(178,64,74)" stroke="rgb(178,64,74)" stroke-width="1" opacity="0.5019607843137255" d="M 182.5 225 L 183 228.5 L 182 228.5 L 182.5 225 Z " /><path fill="rgb(178,64,74)" stroke="rgb(178,64,74)" stroke-width="1" opacity="0.5019607843137255" d="M 6.5 229 L 10 239.5 L 9 239.5 L 6 231.5 L 6.5 229 Z " /><path fill="rgb(178,64,74)" stroke="rgb(178,64,74)" stroke-width="1" opacity="0.5019607843137255" d="M 181.5 230 L 182 232.5 L 174 250.5 Q 164.3 264.8 151.5 276 L 137.5 288 L 109 308.5 L 109 369.5 L 103.5 378 Q 100 382 91.5 381 L 91.5 380 Q 101.6 381.1 105 375.5 L 108 369.5 L 108 308.5 L 111.5 305 Q 139.2 288.2 161 265.5 Q 175.5 252 181.5 230 Z " /><path fill="rgb(178,64,74)" stroke="rgb(178,64,74)" stroke-width="1" opacity="0.5019607843137255" d="M 444.5 240 L 445 243.5 L 443.5 247 L 443 244.5 L 444.5 240 Z " /><path fill="rgb(178,64,74)" stroke="rgb(178,64,74)" stroke-width="1" opacity="0.5019607843137255" d="M 12.5 245 L 21 258.5 L 42.5 280 L 72.5 303 L 80 307 L 79.5 367 L 79 308.5 L 76.5 306 Q 49.7 289.3 28 267.5 L 15 251.5 L 12.5 245 Z " /><path fill="rgb(178,64,74)" stroke="rgb(178,64,74)" stroke-width="1" opacity="0.5019607843137255" d="M 442.5 248 L 443 249.5 L 441 250.5 L 442.5 248 Z " /><path fill="rgb(178,64,74)" stroke="rgb(178,64,74)" stroke-width="1" opacity="0.5019607843137255" d="M 440.5 252 L 440 253.5 L 432.5 263 L 429.5 265 L 432.5 261 L 436 258.5 L 440.5 252 Z " /><path fill="rgb(178,64,74)" stroke="rgb(178,64,74)" stroke-width="1" opacity="0.5019607843137255" d="M 427.5 265 L 426.5 267 L 423.5 268 L 423.5 267 L 427.5 265 Z " /><path fill="rgb(178,64,74)" stroke="rgb(178,64,74)" stroke-width="1" opacity="0.5019607843137255" d="M 416.5 269 L 419 269.5 L 416.5 270 L 416.5 269 Z " /><path fill="rgb(178,64,74)" stroke="rgb(178,64,74)" stroke-width="1" opacity="0.5019607843137255" d="M 235 270 L 414 270.5 L 236 271 L 235.5 283 L 235 270 Z " /><path fill="rgb(178,64,74)" stroke="rgb(178,64,74)" stroke-width="1" opacity="0.5019607843137255" d="M 478.5 282 L 479 285.5 Q 476.8 293.3 471.5 298 L 462.5 303 L 462.5 302 Q 471.1 299.6 475 292.5 L 478.5 282 Z " /><path fill="rgb(178,64,74)" stroke="rgb(178,64,74)" stroke-width="1" opacity="0.5019607843137255" d="M 507.5 283 L 508 288.5 L 507 288.5 L 507.5 283 Z " /><path fill="rgb(178,64,74)" stroke="rgb(178,64,74)" stroke-width="1" opacity="0.5019607843137255" d="M 236.5 284 L 239 290.5 L 237 289.5 L 236.5 284 Z " /><path fill="rgb(178,64,74)" stroke="rgb(178,64,74)" stroke-width="1" opacity="0.5019607843137255" d="M 207.5 286 Q 208.3 295.3 212 301.5 L 211 301.5 L 207 290.5 L 207.5 286 Z " /><path fill="rgb(178,64,74)" stroke="rgb(178,64,74)" stroke-width="1" opacity="0.5019607843137255" d="M 506.5 290 L 507 292.5 L 506 292.5 L 506.5 290 Z " /><path fill="rgb(178,64,74)" stroke="rgb(178,64,74)" stroke-width="1" opacity="0.5019607843137255" d="M 239.5 292 L 244.5 298 L 250 301.5 L 248.5 301 L 241 295.5 L 239.5 292 Z " /><path fill="rgb(178,64,74)" stroke="rgb(178,64,74)" stroke-width="1" opacity="0.5019607843137255" d="M 505.5 294 L 506 296.5 L 504.5 299 L 504 297.5 L 505.5 294 Z " /><path fill="rgb(178,64,74)" stroke="rgb(178,64,74)" stroke-width="1" opacity="0.5019607843137255" d="M 503.5 300 L 504 301.5 L 493 318 L 474.5 330 L 460.5 333 L 460.5 332 Q 484.7 328.7 496 312.5 L 503.5 300 Z " /><path fill="rgb(178,64,74)" stroke="rgb(178,64,74)" stroke-width="1" opacity="0.5019607843137255" d="M 458.5 303 L 461 303.5 L 458.5 304 L 458.5 303 Z " /><path fill="rgb(178,64,74)" stroke="rgb(178,64,74)" stroke-width="1" opacity="0.5019607843137255" d="M 259.5 304 L 456 304.5 L 259.5 305 L 259.5 304 Z " /><path fill="rgb(178,64,74)" stroke="rgb(178,64,74)" stroke-width="1" opacity="0.5019607843137255" d="M 213.5 305 L 223.5 318 Q 231 325.5 242 329.5 L 240.5 330 Q 228.2 324.8 220 315.5 L 213.5 305 Z " /><path fill="rgb(178,64,74)" stroke="rgb(178,64,74)" stroke-width="1" opacity="0.5019607843137255" d="M 246.5 331 L 249 331.5 L 246.5 332 L 246.5 331 Z " /><path fill="rgb(178,64,74)" stroke="rgb(178,64,74)" stroke-width="1" opacity="0.5019607843137255" d="M 250.5 332 L 255 332.5 L 250.5 333 L 250.5 332 Z " /><path fill="rgb(178,64,74)" stroke="rgb(178,64,74)" stroke-width="1" opacity="0.5019607843137255" d="M 260.5 333 L 302 333 L 302 380.5 L 301 380.5 L 301 334 L 260.5 334 L 260.5 333 Z " /><path fill="rgb(178,64,74)" stroke="rgb(178,64,74)" stroke-width="1" opacity="0.5019607843137255" d="M 330.5 333 L 455 333.5 L 330.5 334 L 330.5 333 Z " /><path fill="rgb(178,64,74)" stroke="rgb(178,64,74)" stroke-width="1" opacity="0.5019607843137255" d="M 395.5 347 L 403 347.5 L 395.5 348 L 395.5 347 Z " /><path fill="rgb(178,64,74)" stroke="rgb(178,64,74)" stroke-width="1" opacity="0.5019607843137255" d="M 392.5 348 L 394 348.5 L 388 352.5 L 386.5 355 L 387 353.5 L 389.5 350 L 392.5 348 Z " /><path fill="rgb(178,64,74)" stroke="rgb(178,64,74)" stroke-width="1" opacity="0.5019607843137255" d="M 404.5 348 L 412 353.5 L 414 358.5 L 414 377.5 L 413 377.5 L 413 358.5 Q 411.8 352.8 407.5 350 Q 403.8 349.8 404.5 348 Z " /><path fill="rgb(178,64,74)" stroke="rgb(178,64,74)" stroke-width="1" opacity="0.5019607843137255" d="M 384.5 359 L 385 376.5 L 380.5 382 L 379 381.5 L 383 378.5 L 384 376.5 L 384.5 359 Z " /><path fill="rgb(178,64,74)" stroke="rgb(178,64,74)" stroke-width="1" opacity="0.5019607843137255" d="M 80.5 369 Q 81.6 375.4 86.5 378 L 90 379.5 L 88.5 380 L 81 373.5 L 80.5 369 Z " /><path fill="rgb(178,64,74)" stroke="rgb(178,64,74)" stroke-width="1" opacity="0.5019607843137255" d="M 330.5 374 Q 330.5 380 335 381.5 L 330 377.5 L 330.5 374 Z " /><path fill="rgb(178,64,74)" stroke="rgb(178,64,74)" stroke-width="1" opacity="0.5019607843137255" d="M 412.5 380 L 413 383.5 L 411.5 387 L 411 384.5 L 412.5 380 Z " /><path fill="rgb(178,64,74)" stroke="rgb(178,64,74)" stroke-width="1" opacity="0.5019607843137255" d="M 302.5 382 L 304 387.5 L 303 387.5 L 302.5 382 Z " /><path fill="rgb(178,64,74)" stroke="rgb(178,64,74)" stroke-width="1" opacity="0.5019607843137255" d="M 336.5 382 L 378 382.5 L 336.5 383 L 336.5 382 Z " /><path fill="rgb(178,64,74)" stroke="rgb(178,64,74)" stroke-width="1" opacity="0.5019607843137255" d="M 410.5 388 L 411 389.5 L 408.5 393 L 409 391.5 L 410.5 388 Z " /><path fill="rgb(178,64,74)" stroke="rgb(178,64,74)" stroke-width="1" opacity="0.5019607843137255" d="M 304.5 389 Q 308.8 399.2 317.5 405 L 325 408.5 L 323.5 409 L 311 401 L 304.5 389 Z " /><path fill="rgb(178,64,74)" stroke="rgb(178,64,74)" stroke-width="1" opacity="0.5019607843137255" d="M 407.5 394 L 407 395.5 L 399.5 404 Q 393.2 410.2 381.5 411 L 381.5 410 Q 397.8 408.3 405 397.5 L 407.5 394 Z " /><path fill="rgb(178,64,74)" stroke="rgb(178,64,74)" stroke-width="1" opacity="0.5019607843137255" d="M 326.5 409 L 334 410.5 L 329.5 411 L 326.5 410 L 326.5 409 Z " /><path fill="rgb(178,64,74)" stroke="rgb(178,64,74)" stroke-width="1" opacity="0.5019607843137255" d="M 336.5 411 L 344.5 411 L 345 411.5 L 345 446.5 L 344 446.5 L 344 412.5 L 343.5 412 L 336.5 412 L 336.5 411 Z " /><path fill="rgb(178,64,74)" stroke="rgb(178,64,74)" stroke-width="1" opacity="0.5019607843137255" d="M 373 411 L 379 411.5 L 374 412 L 373.5 446 L 373 411 Z " /><path fill="rgb(178,64,74)" stroke="rgb(178,64,74)" stroke-width="1" opacity="0.5019607843137255" d="M 89.5 419 L 92 419.5 L 89.5 420 L 89.5 419 Z " /><path fill="rgb(178,64,74)" stroke="rgb(178,64,74)" stroke-width="1" opacity="0.5019607843137255" d="M 97.5 419 Q 104.7 419.9 107 425.5 L 108 428.5 L 107 428.5 L 101.5 421 L 97.5 420 L 97.5 419 Z " /><path fill="rgb(178,64,74)" stroke="rgb(178,64,74)" stroke-width="1" opacity="0.5019607843137255" d="M 85.5 421 L 82.5 425 L 85.5 421 Z " /><path fill="rgb(178,64,74)" stroke="rgb(178,64,74)" stroke-width="1" opacity="0.5019607843137255" d="M 81.5 426 L 81 427.5 L 80.5 430 L 80 427.5 L 81.5 426 Z " /><path fill="rgb(178,64,74)" stroke="rgb(178,64,74)" stroke-width="1" opacity="0.5019607843137255" d="M 108.5 430 L 109 446.5 L 108 446.5 L 108.5 430 Z " /><path fill="rgb(178,64,74)" stroke="rgb(178,64,74)" stroke-width="1" opacity="0.5019607843137255" d="M 79.5 432 L 80 446.5 L 79 446.5 L 79.5 432 Z " /><path fill="rgb(178,64,74)" stroke="rgb(178,64,74)" stroke-width="1" opacity="0.5019607843137255" d="M 343.5 449 L 344 453.5 L 342.5 457 L 342 454.5 L 343.5 449 Z " /><path fill="rgb(178,64,74)" stroke="rgb(178,64,74)" stroke-width="1" opacity="0.5019607843137255" d="M 109.5 450 L 110 453.5 L 109 453.5 L 109.5 450 Z " /><path fill="rgb(178,64,74)" stroke="rgb(178,64,74)" stroke-width="1" opacity="0.5019607843137255" d="M 372.5 451 L 373 455.5 L 372 455.5 L 372.5 451 Z " /><path fill="rgb(178,64,74)" stroke="rgb(178,64,74)" stroke-width="1" opacity="0.5019607843137255" d="M 80.5 452 L 81 456.5 L 80 456.5 L 80.5 452 Z " /><path fill="rgb(178,64,74)" stroke="rgb(178,64,74)" stroke-width="1" opacity="0.5019607843137255" d="M 81.5 458 L 82 460.5 L 81 460.5 L 81.5 458 Z " /><path fill="rgb(178,64,74)" stroke="rgb(178,64,74)" stroke-width="1" opacity="0.5019607843137255" d="M 111.5 458 Q 114.7 467.3 121.5 473 L 126 476.5 L 122.5 474 L 118 470.5 Q 112.6 465.5 111.5 458 Z " /><path fill="rgb(178,64,74)" stroke="rgb(178,64,74)" stroke-width="1" opacity="0.5019607843137255" d="M 341.5 458 L 342 459.5 L 338.5 465 L 339 463.5 L 341.5 458 Z " /><path fill="rgb(178,64,74)" stroke="rgb(178,64,74)" stroke-width="1" opacity="0.5019607843137255" d="M 371.5 458 L 372 460.5 L 371 460.5 L 371.5 458 Z " /><path fill="rgb(178,64,74)" stroke="rgb(178,64,74)" stroke-width="1" opacity="0.5019607843137255" d="M 82.5 462 L 83 464.5 L 82 464.5 L 82.5 462 Z " /><path fill="rgb(178,64,74)" stroke="rgb(178,64,74)" stroke-width="1" opacity="0.5019607843137255" d="M 370.5 462 L 371 464.5 L 368.5 470 L 368 468.5 L 370.5 462 Z " /><path fill="rgb(178,64,74)" stroke="rgb(178,64,74)" stroke-width="1" opacity="0.5019607843137255" d="M 83.5 466 Q 89.5 484 102.5 495 Q 110.2 502.3 121 506.5 L 119.5 507 Q 104.8 500.2 95 488.5 Q 86.4 479.1 83.5 466 Z " /><path fill="rgb(178,64,74)" stroke="rgb(178,64,74)" stroke-width="1" opacity="0.5019607843137255" d="M 337.5 466 L 335 469.5 L 331.5 474 L 327.5 477 L 330.5 473 L 334 470.5 L 337.5 466 Z " /><path fill="rgb(178,64,74)" stroke="rgb(178,64,74)" stroke-width="1" opacity="0.5019607843137255" d="M 367.5 471 L 368 472.5 Q 361.5 486.5 350.5 496 L 340.5 503 L 341.5 501 L 356 489.5 Q 363.3 481.8 367.5 471 Z " /><path fill="rgb(178,64,74)" stroke="rgb(178,64,74)" stroke-width="1" opacity="0.5019607843137255" d="M 127.5 477 Q 133.3 481.7 143 482.5 L 138.5 483 L 128.5 479 L 127.5 477 Z " /><path fill="rgb(178,64,74)" stroke="rgb(178,64,74)" stroke-width="1" opacity="0.5019607843137255" d="M 325.5 477 L 324.5 479 L 314.5 483 L 310.5 483 L 310.5 482 L 314.5 482 L 325.5 477 Z " /><path fill="rgb(178,64,74)" stroke="rgb(178,64,74)" stroke-width="1" opacity="0.5019607843137255" d="M 146.5 483 L 307 483.5 L 146.5 484 L 146.5 483 Z " /><path fill="rgb(178,64,74)" stroke="rgb(178,64,74)" stroke-width="1" opacity="0.5019607843137255" d="M 338.5 503 L 337.5 505 L 332.5 507 L 332.5 506 L 338.5 503 Z " /><path fill="rgb(178,64,74)" stroke="rgb(178,64,74)" stroke-width="1" opacity="0.5019607843137255" d="M 122.5 507 L 130 509.5 L 127.5 510 L 122.5 508 L 122.5 507 Z " /><path fill="rgb(178,64,74)" stroke="rgb(178,64,74)" stroke-width="1" opacity="0.5019607843137255" d="M 329.5 507 L 331 507.5 L 323.5 510 L 323.5 509 L 329.5 507 Z " /><path fill="rgb(178,64,74)" stroke="rgb(178,64,74)" stroke-width="1" opacity="0.5019607843137255" d="M 131.5 510 L 135 510.5 L 131.5 511 L 131.5 510 Z " /><path fill="rgb(178,64,74)" stroke="rgb(178,64,74)" stroke-width="1" opacity="0.5019607843137255" d="M 318.5 510 L 322 510.5 L 318.5 511 L 318.5 510 Z " /><path fill="rgb(178,64,74)" stroke="rgb(178,64,74)" stroke-width="1" opacity="0.5019607843137255" d="M 136.5 511 L 142 511.5 L 136.5 512 L 136.5 511 Z " /><path fill="rgb(178,64,74)" stroke="rgb(178,64,74)" stroke-width="1" opacity="0.5019607843137255" d="M 311.5 511 L 317 511.5 L 311.5 512 L 311.5 511 Z " /><path fill="rgb(179,64,74)" stroke="rgb(179,64,74)" stroke-width="1" opacity="0.996078431372549" d="M 256.5 0 L 458.5 0 L 468.5 2 L 480.5 7 L 496 20.5 L 504 33.5 L 508 50.5 L 508 282.5 L 506 293.5 L 501 305.5 L 486.5 322 L 474.5 329 L 459.5 333 L 330 333 L 330 377.5 L 334.5 382 L 336.5 383 L 377.5 383 L 384 378.5 L 385 376.5 L 385 358.5 L 389.5 351 Q 393.3 346.3 403.5 348 L 411 353.5 L 413 358.5 L 413 379.5 Q 410.1 395.1 399.5 403 Q 390.2 411.6 373 411 L 373 450.5 L 371 461.5 Q 365.3 481.8 351.5 494 Q 343.1 502.1 331.5 507 L 310.5 512 L 142.5 512 L 121.5 507 Q 106.9 500.6 97 489.5 Q 88 479.5 83 465.5 L 80 451.5 L 80 430.5 Q 81.5 424 86.5 421 L 96.5 419 Q 103 420.5 106 425.5 L 108 429.5 L 109 453.5 Q 112.4 466.6 121.5 474 L 132.5 481 L 146.5 484 L 306.5 484 L 320.5 481 L 335 470.5 Q 341.2 463.7 344 453.5 Q 342.5 448 345 446.5 L 345 411 Q 318 412.4 308 395.5 L 302 381.5 L 302 333 L 255.5 333 Q 254.2 330.8 249.5 332 Q 231.6 327.4 221 315.5 L 212 302.5 L 207 285.5 L 207 47.5 Q 210.4 26.4 223.5 15 Q 230.5 8 240.5 4 L 256.5 0 Z M 260 28 L 252 30 L 245 34 Q 237 39 235 51 L 235 91 L 281 91 L 282 90 L 296 90 L 297 91 L 436 91 L 440 93 L 445 102 L 445 240 L 443 248 L 436 259 Q 429 267 416 270 L 235 270 Q 233 287 241 296 L 248 301 L 260 305 L 456 305 L 464 303 L 472 298 L 478 289 L 480 280 L 480 54 L 476 41 L 468 32 L 455 28 L 260 28 Z M 235 119 L 235 166 L 270 166 L 270 119 L 235 119 Z M 298 119 L 298 237 L 299 239 L 304 242 L 412 242 L 414 241 L 417 236 L 417 119 L 298 119 Z M 237 194 L 235 196 L 235 242 L 270 242 L 270 196 L 269 194 L 237 194 Z " /><path fill="rgb(179,64,74)" stroke="rgb(179,64,74)" stroke-width="1" opacity="0.996078431372549" d="M 60.5 152 L 61.5 153 L 75.5 154 L 95.5 163 L 106.5 156 L 116.5 153 L 126.5 153 L 127.5 152 L 128.5 153 L 138.5 153 L 151.5 157 Q 162.6 161.9 170 170.5 Q 185.7 185.8 184 218.5 L 179 238.5 L 173 250.5 L 153.5 273 Q 132.3 292.3 108 308.5 L 108 369.5 L 103.5 377 Q 99.7 381.2 90.5 380 L 82 373.5 L 80 368.5 L 80 307 Q 46.5 287.3 21 258.5 Q 10.8 246.2 6 228.5 L 4 205.5 L 8 187.5 L 13 177.5 L 20 168 L 29.5 161 L 39.5 156 L 50.5 153 L 59.5 153 L 60.5 152 Z M 55 181 L 45 185 Q 36 191 33 203 L 33 220 L 36 230 Q 41 240 49 248 Q 70 267 94 283 Q 114 271 132 255 L 149 236 L 153 228 L 156 216 L 155 202 L 150 191 Q 144 184 134 181 L 121 181 L 113 185 L 106 194 L 98 199 Q 88 200 84 195 L 80 190 Q 74 178 55 181 Z " /></svg>